# AST/ASF file generated using VICON BodyLanguage
# -----------------------------------------------
:version 1.10
:name VICON
:units
  mass 1.0
  length 0.45
  angle deg
:documentation
   .ast/.asf automatically generated from VICON data using
   VICON BodyBuilder and BodyLanguage model FoxedUp or BRILLIANT.MOD
:root
   order TX TY TZ RX RY RZ
   axis XYZ
   position 0 0 0  
   orientation 0 0 0 
:bonedata
  begin
     id 1 
     name lhipjoint
     direction 0.575328 -0.747301 0.332475 
     length 2.40933 
     axis 0 0 0  XYZ
  end
  begin
     id 2 
     name lfemur
     direction 0.34202 -0.939693 0  
     length 7.31453  
     axis 0 0 20  XYZ
    dof rx ry rz
    limits (-160.0 20.0)
           (-70.0 70.0)
           (-60.0 70.0)
  end
  begin
     id 3 
     name ltibia
     direction 0.34202 -0.939693 0   
     length 7.82185   
     axis 0 0 20   XYZ
    dof rx
    limits (-10.0 170.0)
  end
  begin
     id 4 
     name lfoot
     direction 0.0795993 -0.218697 0.972541   
     length 2.19173   
     axis -90 7.62852e-016 20   XYZ
    dof rx rz
    limits (-45.0 90.0)
           (-70.0 20.0)
  end
  begin
     id 5 
     name ltoes
     direction 1.53537e-011 -4.21894e-011 1   
     length 1.10023   
     axis -90 7.62852e-016 20   XYZ
    dof rx
    limits (-90.0 20.0)
  end
  begin
     id 6 
     name rhipjoint
     direction -0.513884 -0.783789 0.348708   
     length 2.29716  
     axis 0 0 0  XYZ 
  end
  begin
     id 7 
     name rfemur
     direction -0.34202 -0.939693 0   
     length 7.59573   
     axis 0 0 -20   XYZ
    dof rx ry rz
    limits (-160.0 20.0)
           (-70.0 70.0)
           (-70.0 60.0)
  end
  begin
     id 8 
     name rtibia
     direction -0.34202 -0.939693 0   
     length 7.66402   
     axis 0 0 -20   XYZ
    dof rx
    limits (-10.0 170.0)
 end
 begin
     id 9 
     name rfoot
     direction -0.137793 -0.378584 0.915253   
     length 2.27056  
     axis -90 -7.62852e-016 -20   XYZ
    dof rx rz
    limits (-45.0 90.0)
           (-20.0 70.0)
  end
  begin
     id 10 
     name rtoes
     direction -1.53493e-011 -4.22159e-011 1   
     length 1.11766   
     axis -90 -7.62852e-016 -20   XYZ
    dof rx
    limits (-90.0 20.0)
  end
  begin
     id 11 
     name lowerback
     direction -0.00732775 0.998356 -0.05685   
     length 2.16513   
     axis 0 0 0   XYZ
    dof rx ry rz
    limits (-20.0 45.0)
           (-30.0 30.0)
           (-30.0 30.0)
  end
  begin
     id 12 
     name upperback
     direction 0.0218081 0.999627 -0.0164647   
     length 2.16755   
     axis 0 0 0   XYZ
    dof rx ry rz
    limits (-20.0 45.0)
           (-30.0 30.0)
           (-30.0 30.0)
  end
  begin
     id 13 
     name thorax
     direction 0.02365 0.999661 0.0108914   
     length 2.16932   
     axis 0 0 0   XYZ
    dof rx ry rz
    limits (-20.0 45.0)
           (-30.0 30.0)
           (-30.0 30.0)
  end
  begin
     id 14 
     name lowerneck
     direction -0.0523929 0.978385 0.200044   
     length 1.63877   
     axis 0 0 0   XYZ
    dof rx ry rz
    limits (-20.0 45.0)
           (-30.0 30.0)
           (-30.0 30.0)
  end
  begin
     id 15 
     name upperneck
     direction 0.0448674 0.981321 -0.187074   
     length 1.69014   
     axis 0 0 0   XYZ
    dof rx ry rz
    limits (-20.0 45.0)
           (-30.0 30.0)
           (-30.0 30.0)
  end
  begin
     id 16
     name head
     direction 0.0199089 0.996118 -0.0857429  
     length 1.70094  
     axis 0 0 0   XYZ
    dof rx ry rz
    limits (-20.0 45.0)
           (-30.0 30.0)
           (-30.0 30.0)
  end
  begin
     id 17 
     name lclavicle
     direction 0.940366 0.30191 -0.156722  
     length 3.37521  
     axis 0 0 0   XYZ
    dof ry rz
    limits (-20.0 10.0)
           (0.0 20.0)
  end
  begin
     id 18 
     name lhumerus
     direction 1 -4.4897e-011 -1.7911e-027   
     length 5.25287   
     axis 180 -30 -90   XYZ
    dof rx ry rz
    limits (-60.0 90.0)
           (-90.0 90.0)
           (-90.0 90.0)
  end
  begin
     id 19
     name lradius
     direction 1 -4.48951e-011 1.04424e-027   
     length 3.51014   
     axis 180 -30 -90   XYZ
    dof rx
    limits (-10.0 170.0)
  end
  begin
     id 20
     name lwrist
     direction 1 -4.48997e-011 -9.5942e-028   
     length 1.75507   
     axis 8.48502e-016 90 90   XYZ
    dof ry
    limits (-180.0 0.0)
 end
  begin
     id 21 
     name lhand
     direction 1 -4.48831e-011 -1.90777e-027   
     length 0.706179   
     axis 1.22306e-015 90 90   XYZ
    dof rx rz
    limits (-90.0 90.0)
           (-45.0 45.0)
  end
  begin
     id 22 
     name lfingers
     direction 1 -4.49108e-011 -3.85244e-027   
     length 0.569339   
     axis 2.44611e-015 90 90   XYZ
    dof rx
    limits (0.0 90.0)
  end
  begin
     id 23
     name lthumb
     direction 0.707107 -6.34953e-011 0.707107   
     length 0.817461   
     axis -90 45 -1.62303e-014   XYZ
    dof rx rz
    limits (-45.0 45.0)
           (-45.0 45.0)
  end
  begin
     id 24 
     name rclavicle
     direction -0.905329 0.382405 -0.184787   
     length 3.30787  
     axis 0 0 0   XYZ 
    dof ry rz
    limits (-10.0 20.0)
           (-20.0 0.0)
  end
  begin
     id 25 
     name rhumerus
     direction -1 -4.48953e-011 -9.15316e-029  
     length 5.28721   
     axis 180 30 90   XYZ
    dof rx ry rz
    limits (-90.0 60.0)
           (-90.0 90.0)
           (-90.0 90.0)
  end
  begin
     id 26 
     name rradius
     direction -1 -4.48987e-011 9.37824e-028   
     length 3.50544   
     axis 180 30 90   XYZ
    dof rx
    limits (-10.0 170.0)
  end
  begin
     id 27 
     name rwrist
     direction -1 -4.48967e-011 -9.58414e-028   
     length 1.75272   
     axis 8.48502e-016 -90 -90   XYZ
    dof ry
    limits (-180.0 0.0)
  end
  begin
     id 28
     name rhand
     direction -1 -4.48904e-011 -1.91266e-027   
     length 0.884996   
     axis 1.22306e-015 -90 -90   XYZ
    dof rx rz
    limits (-90.0 90.0)
           (-45.0 45.0)
  end
  begin
     id 29
     name rfingers
     direction -1 -4.4909e-011 -3.85015e-027   
     length 0.713507   
     axis 2.44611e-015 -90 -90   XYZ
    dof rx
    limits (0.0 90.0)
  end
  begin
     id 30
     name rthumb
     direction -0.707107 -6.34853e-011 0.707107   
     length 1.02446   
     axis -90 -45 1.62303e-014   XYZ
    dof rx rz
    limits (-45.0 45.0)
           (-45.0 45.0)
  end
:hierarchy
  begin
    root lhipjoint rhipjoint lowerback
    lhipjoint lfemur
    lfemur ltibia
    ltibia lfoot
    lfoot ltoes
    rhipjoint rfemur
    rfemur rtibia
    rtibia rfoot
    rfoot rtoes
    lowerback upperback
    upperback thorax
    thorax lowerneck lclavicle rclavicle
    lowerneck upperneck
    upperneck head
    lclavicle lhumerus
    lhumerus lradius
    lradius lwrist
    lwrist lhand lthumb
    lhand lfingers
    rclavicle rhumerus
    rhumerus rradius
    rradius rwrist
    rwrist rhand rthumb
    rhand rfingers
  end

#!OML:ASF F:\twosubjects\two\Thursday\Session 1\justin.ASF
:FULLY-SPECIFIED
:DEGREES
101
root 7.01068 17.3111 -11.2088 26.482 -3.73959 -1.17004
lowerback 26.3482 0.968696 -0.590701
upperback 4.83298 1.32163 2.42559
thorax -9.31759 0.659283 2.60501
lowerneck -19.2993 -2.09298 -9.95259
upperneck -0.0447972 -1.01623 8.2772
head 3.12641 -0.116785 4.09954
rclavicle 7.95139e-016 -1.98785e-014
rhumerus 9.73351 44.2057 -61.5754
rradius 56.9766
rwrist 15.0544
rhand -51.1599 30.4975
rfingers 7.12502
rthumb -23.7019 1.9389
lclavicle 7.95139e-016 -1.98785e-014
lhumerus 3.51066 -40.3779 76.2849
lradius 56.8153
lwrist -31.7822
lhand -23.9215 66.2725
lfingers 7.12502
lthumb 2.55316 263.763
rfemur -50.8277 -9.68876 2.70092
rtibia 32.004
rfoot -5.26885 -2.12179
rtoes -33.13
lfemur -28.3917 9.94142 -7.45713
ltibia 28.2697
lfoot -14.8765 10.6944
ltoes -23.4285
102
root 6.96632 17.3089 -11.1086 26.3247 -3.57922 -0.906731
lowerback 26.1233 0.907862 -0.764821
upperback 4.88215 1.20127 2.46852
thorax -9.14495 0.607799 2.79335
lowerneck -19.3577 -2.12124 -9.8576
upperneck 0.172395 -1.06805 8.08476
head 3.20278 -0.152569 4.01943
rclavicle -1.98785e-015 3.22031e-014
rhumerus 9.16525 44.4262 -62.2108
rradius 56.8354
rwrist 15.7598
rhand -51.674 29.5936
rfingers 7.12502
rthumb -24.1949 1.09976
lclavicle -1.98785e-015 3.22031e-014
lhumerus 3.00213 -40.2979 76.5393
lradius 56.7108
lwrist -31.6659
lhand -23.7399 66.2559
lfingers 7.12502
lthumb 2.72854 263.782
rfemur -50.6462 -8.82702 1.9725
rtibia 30.3376
rfoot -3.92673 -1.65923
rtoes -35.2032
lfemur -27.7059 9.89275 -7.52275
ltibia 27.7625
lfoot -14.616 10.4135
ltoes -23.3032
103
root 6.91475 17.3067 -11.0049 26.0348 -3.259 -0.535236
lowerback 25.8297 0.821107 -0.930917
upperback 5.06552 1.04377 2.46712
thorax -8.78232 0.534441 2.93741
lowerneck -19.2445 -2.13436 -9.70904
upperneck 0.0115018 -1.1125 7.89562
head 3.13708 -0.185249 3.93051
rclavicle -1.11319e-014 -4.77083e-015
rhumerus 9.00991 44.7524 -62.4637
rradius 56.5134
rwrist 16.0414
rhand -52.1829 29.2308
rfingers 7.12502
rthumb -24.6828 0.802812
lclavicle -1.11319e-014 -4.77083e-015
lhumerus 2.79889 -40.263 76.6225
lradius 56.5156
lwrist -31.6528
lhand -23.1129 66.0237
lfingers 7.12502
lthumb 3.33411 264.023
rfemur -50.2988 -8.03413 1.15565
rtibia 28.8507
rfoot -2.40085 -1.40642
rtoes -35.9615
lfemur -26.997 9.83095 -7.63135
ltibia 27.3932
lfoot -14.3529 9.93561
ltoes -23.8767
104
root 6.85995 17.3014 -10.898 25.5968 -2.82471 -0.0713613
lowerback 25.7597 0.698208 -1.14472
upperback 5.22195 0.834321 2.50507
thorax -8.56176 0.438972 3.16972
lowerneck -19.0407 -2.16484 -9.91436
upperneck -0.0731456 -1.13152 8.05114
head 3.08601 -0.190927 4.01066
rclavicle -9.93923e-015 -2.18663e-014
rhumerus 8.84232 45.03 -62.7175
rradius 56.2588
rwrist 15.517
rhand -52.0668 29.9571
rfingers 7.12502
rthumb -24.5715 1.51398
lclavicle -9.93923e-015 -2.18663e-014
lhumerus 2.5477 -40.2011 76.9172
lradius 56.0441
lwrist -31.6306
lhand -22.8066 65.7766
lfingers 7.12502
lthumb 3.6299 264.275
rfemur -49.8244 -7.4012 0.395702
rtibia 27.556
rfoot -0.657078 -1.42348
rtoes -36.1236
lfemur -26.1927 9.76797 -7.79965
ltibia 27.1629
lfoot -14.0628 9.42817
ltoes -24.6143
105
root 6.80683 17.2951 -10.7925 25.4223 -2.48108 0.399364
lowerback 25.5375 0.585246 -1.40363
upperback 5.21518 0.626432 2.5098
thorax -8.44436 0.347354 3.38984
lowerneck -19.0235 -2.22066 -10.1021
upperneck 0.287952 -1.19032 8.22207
head 3.20299 -0.2149 4.09165
rclavicle 2.78299e-015 -4.37326e-015
rhumerus 8.13706 45.0345 -63.5068
rradius 56.4118
rwrist 15.1862
rhand -51.7888 30.938
rfingers 7.12502
rthumb -24.305 2.45888
lclavicle 2.78299e-015 -4.37326e-015
lhumerus 2.01586 -40.2008 77.366
lradius 55.6246
lwrist -31.2981
lhand -23.4308 65.8424
lfingers 7.12502
lthumb 3.02707 264.199
rfemur -49.7571 -6.9281 -0.206155
rtibia 26.5706
rfoot 1.19114 -1.60343
rtoes -35.1881
lfemur -25.7075 9.75287 -8.04707
ltibia 27.0466
lfoot -13.9009 9.07564
ltoes -25.6701
106
root 6.74944 17.2873 -10.6886 25.2625 -2.05784 0.470314
lowerback 25.1691 0.478916 -1.36118
upperback 5.26552 0.514204 2.6196
thorax -8.19257 0.291406 3.51828
lowerneck -19.1311 -2.23749 -9.93561
upperneck 0.618739 -1.2348 7.92318
head 3.31875 -0.252025 3.96708
rclavicle 2.78299e-015 -2.50469e-014
rhumerus 7.32662 44.9629 -64.2788
rradius 56.8059
rwrist 15.1286
rhand -51.7366 31.2912
rfingers 7.12502
rthumb -24.255 2.8054
lclavicle 2.78299e-015 -2.50469e-014
lhumerus 1.54633 -40.3115 77.6468
lradius 55.4213
lwrist -30.8449
lhand -24.2388 65.9777
lfingers 7.12502
lthumb 2.24669 264.054
rfemur -49.8551 -6.5489 -0.0897335
rtibia 26.0195
rfoot 2.39772 -1.58965
rtoes -32.6884
lfemur -25.3209 10.0231 -7.85741
ltibia 27.0713
lfoot -13.8926 8.48847
ltoes -26.4461
107
root 6.68421 17.2668 -10.588 24.7679 -1.36708 0.302635
lowerback 25.0583 0.357366 -1.01336
upperback 5.48927 0.465634 2.8379
thorax -7.88331 0.256926 3.57023
lowerneck -19.0673 -2.31449 -9.90106
upperneck 0.577583 -1.34029 7.77111
head 3.3032 -0.313406 3.90383
rclavicle 8.74653e-015 -8.34896e-015
rhumerus 6.75979 44.9774 -64.6663
rradius 56.9019
rwrist 15.4432
rhand -52.1137 31.1865
rfingers 7.12502
rthumb -24.6165 2.74947
lclavicle 8.74653e-015 -8.34896e-015
lhumerus 1.40884 -40.3261 77.7897
lradius 55.2279
lwrist -30.8599
lhand -24.4359 65.9832
lfingers 7.12502
lthumb 2.05634 264.047
rfemur -49.6366 -6.39356 0.618008
rtibia 25.9912
rfoot 2.38222 -1.95685
rtoes -29.9685
lfemur -24.7487 10.3054 -7.24919
ltibia 27.2884
lfoot -13.6664 7.68421
ltoes -27.3337
108
root 6.61249 17.2326 -10.4866 24.265 -0.704334 0.428415
lowerback 24.9902 0.321893 -0.845784
upperback 5.63946 0.471216 2.93887
thorax -7.68195 0.254011 3.58038
lowerneck -18.9761 -2.56267 -10.1976
upperneck 0.810081 -1.64754 8.15396
head 3.39711 -0.451068 4.04816
rclavicle -1.11319e-014 -1.27222e-014
rhumerus 5.87468 44.7123 -65.3586
rradius 56.8411
rwrist 15.9661
rhand -52.3885 31.3032
rfingers 7.12502
rthumb -24.8799 2.90226
lclavicle -1.11319e-014 -1.27222e-014
lhumerus 1.21946 -40.3345 78.2331
lradius 54.7951
lwrist -31.2636
lhand -24.0794 65.4161
lfingers 7.12502
lthumb 2.40068 264.618
rfemur -49.5192 -6.68376 1.32646
rtibia 26.5579
rfoot 1.58455 -3.34508
rtoes -29.8673
lfemur -24.308 10.3235 -6.88617
ltibia 27.7548
lfoot -13.2669 7.07193
ltoes -28.8098
109
root 6.53965 17.1972 -10.3847 23.9025 -0.22519 0.959727
lowerback 24.8443 0.343507 -1.08979
upperback 5.6278 0.437636 2.90316
thorax -7.61909 0.243084 3.69023
lowerneck -18.615 -2.78287 -10.3444
upperneck 1.02393 -1.96593 8.33423
head 3.44293 -0.609603 4.10204
rclavicle 1.19271e-014 -7.95139e-015
rhumerus 4.63457 44.2596 -66.4056
rradius 56.8829
rwrist 16.4034
rhand -51.9793 31.3814
rfingers 7.12502
rthumb -24.4876 2.92686
lclavicle 1.19271e-014 -7.95139e-015
lhumerus 0.777439 -40.4814 78.7977
lradius 54.4529
lwrist -31.5195
lhand -23.7001 64.5255
lfingers 7.12502
lthumb 2.76702 265.513
rfemur -49.7196 -7.52161 2.01147
rtibia 27.7435
rfoot 0.575192 -5.21558
rtoes -32.0699
lfemur -24.1232 10.1844 -6.97589
ltibia 28.4686
lfoot -13.4091 6.66922
ltoes -30.4819
